<svg xmlns="http://www.w3.org/2000/svg" viewBox="0 0 512 512">
  <rect width="512" height="512" rx="80" fill="#6366f1"/>
  <rect x="64" y="120" width="384" height="328" rx="24" fill="#fff"/>
  <rect x="64" y="120" width="384" height="80" rx="24" fill="#4f46e5"/>
  <rect x="64" y="176" width="384" height="24" fill="#4f46e5"/>
  <rect x="152" y="80" width="24" height="80" rx="12" fill="#fff"/>
  <rect x="336" y="80" width="24" height="80" rx="12" fill="#fff"/>
  <rect x="120" y="248" width="56" height="40" rx="4" fill="#e0e0e0"/>
  <rect x="228" y="248" width="56" height="40" rx="4" fill="#e0e0e0"/>
  <rect x="336" y="248" width="56" height="40" rx="4" fill="#e0e0e0"/>
  <rect x="120" y="320" width="56" height="40" rx="4" fill="#e0e0e0"/>
  <rect x="228" y="320" width="56" height="40" rx="4" fill="#6366f1"/>
  <rect x="336" y="320" width="56" height="40" rx="4" fill="#e0e0e0"/>
  <rect x="120" y="392" width="56" height="40" rx="4" fill="#e0e0e0"/>
  <rect x="228" y="392" width="56" height="40" rx="4" fill="#e0e0e0"/>
  <rect x="336" y="392" width="56" height="40" rx="4" fill="#e0e0e0"/>
</svg>
